<?xml version="1.0" standalone="no"?>
<!DOCTYPE svg PUBLIC "-//W3C//DTD SVG 20010904//EN"
 "http://www.w3.org/TR/2001/REC-SVG-20010904/DTD/svg10.dtd">
<svg version="1.0" xmlns="http://www.w3.org/2000/svg"
 width="104.000000pt" height="104.000000pt" viewBox="0 0 104.000000 104.000000"
 preserveAspectRatio="xMidYMid meet">
<metadata>
Created by potrace 1.14, written by Peter Selinger 2001-2017
</metadata>
<g transform="translate(0.000000,104.000000) scale(0.100000,-0.100000)"
fill="#000000" stroke="none">
<path d="M0 520 l0 -520 520 0 520 0 0 520 0 520 -520 0 -520 0 0 -520z m818
401 c21 -13 10 -46 -16 -49 -24 -4 -38 18 -28 43 6 17 24 19 44 6z m-498 -121
c0 -118 -1 -122 -26 -145 -15 -14 -38 -25 -51 -25 -26 0 -45 31 -24 38 8 3 22
13 33 24 17 17 20 32 18 106 -3 123 -4 122 25 122 l25 0 0 -120z m100 0 l0
-120 65 0 c63 0 65 -1 65 -25 0 -25 -1 -25 -90 -25 l-90 0 0 145 0 145 25 0
25 0 0 -120z m190 -34 c0 -47 4 -87 9 -91 5 -3 21 0 35 6 25 12 26 16 26 91 0
77 0 78 25 78 l25 0 0 -109 0 -108 -75 -1 c-92 -1 -95 2 -95 127 0 90 0 91 25
91 25 0 25 -1 25 -84z m210 -26 l0 -110 -25 0 -25 0 0 110 0 110 25 0 25 0 0
-110z m-54 -311 c29 -11 60 -56 68 -101 10 -55 -9 -111 -49 -147 -30 -26 -44
-31 -86 -31 -84 0 -131 42 -145 127 -4 30 -1 52 14 86 34 76 108 101 198 66z
m-468 -99 l36 -105 33 108 c33 104 35 107 63 107 l29 0 -48 -142 c-46 -138
-49 -143 -77 -146 -29 -3 -29 -3 -73 130 -24 73 -46 139 -49 146 -3 10 3 13
23 10 26 -3 31 -10 63 -108z"/>
<path d="M635 370 c-27 -30 -30 -99 -6 -137 17 -27 27 -33 57 -33 19 0 43 4
53 10 43 23 52 120 15 161 -24 26 -95 26 -119 -1z"/>
</g>
</svg>
